<svg version="1.0" xmlns="http://www.w3.org/2000/svg"
 width="1024.000000pt" height="1024.000000pt" viewBox="0 0 1024.000000 1024.000000"
 preserveAspectRatio="xMidYMid meet">

<g transform="translate(0.000000,1024.000000) scale(0.100000,-0.100000)"
fill="currentColor" stroke="none">
<path d="M4815 8063 c-399 -51 -724 -215 -998 -503 -310 -326 -463 -745 -444
-1220 10 -249 63 -450 177 -675 279 -551 820 -913 1405 -942 362 -17 707 78
997 275 107 73 300 238 318 271 6 13 10 200 10 535 l0 516 180 0 180 0 19 -39
c41 -79 132 -132 229 -131 34 0 109 34 141 63 41 38 71 115 71 182 -1 138 -96
234 -233 235 -67 0 -119 -22 -171 -75 l-35 -35 -726 0 -725 0 0 -185 0 -185
320 0 320 0 0 -320 0 -319 -32 -37 c-51 -59 -182 -151 -282 -199 -50 -24 -140
-56 -201 -72 -102 -26 -124 -28 -300 -28 -160 1 -203 4 -275 22 -185 47 -336
123 -483 245 -249 206 -404 484 -452 808 -63 422 113 871 441 1123 225 174
467 257 748 257 293 0 523 -77 755 -253 103 -79 104 -79 127 -60 73 59 289
257 289 265 0 16 -166 157 -259 219 -203 137 -449 228 -691 258 -84 10 -352
13 -420 4z m2130 -1606 c18 -26 19 -96 2 -118 -55 -72 -177 -35 -177 54 0 92
124 137 175 64z"/>
<path d="M6545 7247 c-81 -32 -138 -91 -152 -157 l-5 -30 -576 0 c-703 0 -785
-3 -881 -30 -222 -63 -388 -223 -450 -436 -26 -89 -28 -247 -5 -343 43 -173
167 -327 329 -406 119 -59 166 -67 413 -72 l222 -5 0 106 0 106 -212 0 c-181
0 -223 3 -276 19 -154 47 -257 153 -297 306 -52 201 44 414 228 507 109 55
147 57 874 58 l661 0 29 -24 c101 -85 208 -88 311 -9 76 57 105 198 61 290
-48 99 -179 157 -274 120z m134 -163 c32 -41 28 -98 -8 -135 -37 -37 -79 -38
-119 -4 -38 32 -48 74 -28 114 21 39 41 50 93 51 33 0 46 -5 62 -26z"/>
<path d="M2530 4105 c0 -41 2 -45 24 -45 13 0 31 -3 40 -6 13 -5 16 2 16 45
l0 51 -40 0 -40 0 0 -45z"/>
<path d="M2690 4105 l0 -45 40 0 40 0 0 45 0 45 -40 0 -40 0 0 -45z"/>
<path d="M2093 3990 c-77 -18 -132 -73 -154 -154 -7 -24 -9 -86 -7 -147 4 -92
8 -112 31 -152 41 -70 85 -92 182 -92 66 0 86 4 117 23 59 37 81 82 86 179 l5
83 -97 0 -96 0 0 -40 0 -40 46 0 47 0 -6 -41 c-7 -51 -28 -75 -73 -84 -46 -8
-94 9 -119 43 -16 22 -21 46 -23 130 -4 121 -1 140 34 181 22 26 33 31 71 31
55 0 78 -12 98 -50 14 -27 21 -30 60 -30 30 0 45 4 45 13 -1 28 -40 96 -68
116 -25 17 -117 44 -141 40 -3 -1 -20 -4 -38 -9z"/>
<path d="M2586 3986 c-60 -23 -89 -47 -116 -102 -23 -44 -25 -61 -25 -174 0
-111 3 -130 23 -167 34 -65 90 -97 176 -101 92 -5 147 22 191 93 29 47 30 51
30 179 0 125 -1 133 -28 178 -50 85 -162 127 -251 94z m144 -106 c33 -35 40
-66 40 -171 0 -100 -19 -152 -65 -173 -41 -20 -68 -20 -104 -1 -42 21 -61 78
-61 186 0 139 31 189 118 189 36 0 49 -6 72 -30z"/>
<path d="M5415 3985 c-66 -18 -118 -73 -141 -151 -24 -83 -16 -222 17 -289 31
-62 62 -84 146 -106 37 -9 60 -18 51 -18 -23 -1 -23 -6 3 -40 18 -24 19 -32 9
-51 -10 -18 -19 -21 -58 -18 -39 2 -47 0 -50 -16 -5 -25 14 -36 66 -36 59 0
98 22 112 65 15 45 6 71 -31 91 -34 17 -31 29 9 37 61 12 122 88 122 152 0 21
-5 25 -29 25 -16 0 -36 2 -44 6 -10 3 -16 -4 -20 -23 -20 -100 -146 -120 -193
-31 -23 43 -26 216 -5 266 16 37 56 62 100 62 38 0 88 -42 96 -81 5 -21 11
-29 22 -25 8 3 28 6 45 6 30 0 30 1 23 38 -8 45 -38 95 -68 114 -20 14 -105
39 -124 37 -4 0 -30 -6 -58 -14z"/>
<path d="M7635 3968 c-46 -24 -59 -38 -85 -93 -16 -33 -20 -62 -20 -160 0
-130 14 -178 61 -222 58 -53 169 -69 244 -34 49 22 73 48 91 98 23 66 20 73
-34 73 -48 0 -49 -1 -58 -37 -7 -29 -18 -43 -46 -58 -34 -18 -40 -19 -80 -5
-66 23 -81 58 -81 190 0 93 3 113 22 143 25 40 38 47 90 47 47 0 87 -29 96
-70 6 -28 9 -30 56 -30 57 0 60 9 30 75 -35 77 -85 105 -184 105 -43 -1 -74
-7 -102 -22z"/>
<path d="M2986 3748 c1 -336 -4 -303 49 -303 l44 -1 3 106 3 105 35 0 c33 0
37 -4 94 -102 58 -99 62 -103 96 -104 19 0 45 -2 58 -3 12 -2 22 -1 22 2 0 2
-29 51 -65 108 -36 57 -65 107 -65 111 0 5 13 15 29 25 91 51 93 204 3 260
-33 20 -52 23 -172 26 l-135 4 1 -234z m238 131 c21 -17 26 -29 26 -64 0 -58
-30 -80 -109 -80 l-56 0 -3 83 -3 82 59 0 c45 0 66 -5 86 -21z"/>
<path d="M3482 3713 l3 -268 48 -3 47 -3 0 99 c0 92 2 101 26 128 14 16 28 25
30 19 3 -5 38 -62 79 -125 l75 -115 63 0 63 0 -99 143 c-54 78 -100 149 -103
157 -6 14 56 93 150 193 l40 42 -69 -1 -70 0 -53 -72 c-29 -40 -71 -92 -92
-117 l-39 -45 -1 118 0 117 -50 0 -50 0 2 -267z"/>
<path d="M4002 3713 l3 -267 160 2 160 2 1 40 0 40 -113 0 -113 0 0 75 0 75
95 0 95 0 0 40 0 40 -95 0 -95 0 0 70 0 69 113 3 112 3 3 38 3 37 -166 0 -165
0 2 -267z"/>
<path d="M4440 3713 l0 -268 42 0 43 0 5 185 5 185 24 -50 c14 -27 39 -88 56
-135 l32 -85 41 -3 c48 -4 45 -8 97 133 61 162 59 163 65 -45 l5 -185 45 1 45
1 3 267 2 266 -63 0 c-73 0 -62 14 -127 -156 -60 -157 -60 -158 -69 -148 -5 5
-25 52 -45 104 -19 52 -44 118 -55 145 l-19 50 -66 3 -66 3 0 -268z"/>
<path d="M5905 3968 c-3 -7 -25 -74 -49 -148 -25 -74 -63 -188 -86 -253 -22
-65 -40 -120 -40 -121 0 -1 22 -2 50 -2 l50 1 20 68 21 67 93 0 94 0 21 -70
22 -71 49 3 c28 2 50 5 50 8 0 2 -39 123 -87 267 l-88 263 -58 0 c-37 0 -59
-4 -62 -12z m69 -107 c9 -14 56 -179 56 -196 0 -12 -14 -15 -65 -15 -45 0 -65
4 -65 13 0 6 11 48 25 92 14 44 25 88 25 98 0 18 15 23 24 8z"/>
<path d="M6290 3711 l0 -269 118 4 c66 3 135 12 159 20 91 33 133 112 133 249
0 106 -20 165 -71 208 -53 46 -97 57 -228 57 l-111 0 0 -269z m234 174 c52
-25 78 -81 77 -171 -1 -128 -49 -184 -158 -184 l-53 0 0 185 0 185 51 0 c28 0
66 -7 83 -15z"/>
<path d="M6810 3713 l0 -268 50 0 50 0 0 268 0 267 -50 0 -50 0 0 -267z"/>
<path d="M7042 3713 l3 -268 48 -3 47 -2 0 110 0 110 35 0 c33 0 37 -4 97
-106 l63 -107 53 1 c28 0 54 1 56 1 3 1 -24 48 -60 106 l-64 105 46 44 46 45
-4 75 c-3 63 -7 79 -28 102 -42 45 -78 54 -215 54 l-125 0 2 -267z m242 166
c21 -16 26 -29 26 -63 0 -60 -24 -79 -106 -84 l-64 -4 0 86 0 86 59 0 c44 0
65 -5 85 -21z"/>
<path d="M8060 3710 l0 -271 45 2 45 3 0 268 0 268 -45 0 -45 0 0 -270z"/>
<path d="M2022 3069 c-89 -26 -92 -155 -4 -187 15 -5 48 -17 73 -26 54 -20 68
-47 38 -77 -25 -25 -70 -24 -102 1 -33 26 -77 27 -77 2 0 -46 95 -90 163 -77
91 18 130 125 66 179 -17 14 -43 29 -57 32 -70 14 -97 30 -100 55 -6 55 76 72
114 24 16 -21 26 -25 47 -20 26 7 26 7 10 41 -27 55 -92 76 -171 53z"/>
<path d="M2393 3069 c-18 -5 -45 -26 -60 -46 -23 -30 -28 -48 -32 -110 -8
-159 71 -238 199 -200 37 11 49 21 70 57 34 62 35 188 2 241 -33 54 -110 79
-179 58z m117 -81 c15 -24 20 -51 20 -100 0 -57 -4 -71 -26 -97 -19 -23 -34
-31 -58 -31 -53 0 -70 28 -74 124 -3 71 -1 84 18 109 17 21 30 27 61 27 34 0
42 -5 59 -32z"/>
<path d="M6903 3061 c-61 -28 -78 -66 -78 -171 0 -71 4 -91 23 -121 29 -48 89
-73 151 -64 87 13 128 90 118 220 -7 78 -25 111 -78 137 -44 23 -83 22 -136
-1z m126 -67 c26 -33 30 -148 6 -194 -27 -52 -105 -52 -133 0 -20 39 -12 172
12 199 29 32 88 29 115 -5z"/>
<path d="M2700 2890 l0 -180 30 0 30 0 0 75 0 75 65 0 c63 0 65 1 65 25 0 24
-2 25 -65 25 l-65 0 0 50 c0 56 -7 53 98 50 l62 -1 0 30 0 31 -110 0 -110 0 0
-180z"/>
<path d="M3010 3040 c0 -29 1 -30 50 -30 l50 0 0 -150 0 -150 30 0 30 0 0 150
0 150 45 0 c43 0 45 1 45 30 l0 30 -125 0 -125 0 0 -30z"/>
<path d="M3340 3066 c0 -3 15 -56 34 -118 19 -62 42 -141 51 -175 17 -61 19
-63 51 -63 30 0 34 4 43 38 6 20 20 73 33 116 l22 79 17 -39 c9 -22 24 -74 34
-117 l19 -77 38 0 c24 0 38 5 38 13 0 7 18 71 39 142 21 72 43 147 49 168 l10
37 -32 0 -33 0 -33 -125 c-18 -69 -37 -128 -41 -131 -9 -5 -15 14 -49 159 -23
94 -25 97 -52 97 -23 0 -29 -6 -37 -37 -13 -52 -39 -161 -46 -200 -4 -18 -10
-33 -13 -33 -4 0 -23 61 -42 135 l-35 135 -32 0 c-18 0 -33 -2 -33 -4z"/>
<path d="M3910 2903 c-30 -92 -56 -173 -58 -180 -2 -9 8 -13 31 -13 32 0 34 2
43 48 l9 47 65 0 64 0 17 -45 c14 -39 21 -45 48 -48 17 -2 31 0 31 4 0 4 -25
85 -56 181 l-57 173 -41 0 -41 0 -55 -167z m124 18 c9 -29 13 -57 10 -62 -8
-14 -84 -11 -84 4 0 15 27 104 36 118 10 16 21 -1 38 -60z"/>
<path d="M4260 2891 l0 -181 30 0 30 0 0 71 0 70 27 -3 c22 -2 35 -16 66 -70
37 -66 40 -68 78 -68 l39 0 -25 40 c-14 22 -25 42 -25 46 0 3 -9 19 -21 35
l-20 29 24 11 c52 23 64 118 23 166 -23 27 -29 28 -125 31 l-101 4 0 -181z
m172 111 c18 -18 13 -73 -7 -88 -10 -8 -38 -14 -62 -14 l-43 0 0 61 0 62 51
-5 c27 -3 55 -10 61 -16z"/>
<path d="M4628 2890 l3 -180 109 0 110 0 0 30 0 30 -79 0 c-86 0 -93 5 -86 60
2 14 4 28 4 33 1 4 30 7 66 7 63 0 65 1 65 25 0 24 -2 25 -64 25 -60 0 -64 1
-68 25 -3 14 -3 37 0 51 l5 27 78 -6 79 -5 0 29 0 29 -112 0 -113 0 3 -180z"/>
<path d="M5130 2890 l0 -180 80 0 c86 0 132 15 160 54 45 61 52 157 18 226
-32 62 -71 80 -175 80 l-83 0 0 -180z m184 89 c26 -29 28 -37 24 -95 -5 -86
-32 -116 -98 -112 l-45 3 -3 109 c-1 61 0 116 3 124 10 27 86 8 119 -29z"/>
<path d="M5520 2890 l0 -180 110 0 110 0 0 30 0 30 -81 0 -80 0 3 48 3 47 68
3 c64 3 67 4 67 27 0 24 -2 25 -71 25 l-70 0 3 48 3 47 78 0 77 0 0 28 0 27
-110 0 -110 0 0 -180z"/>
<path d="M5825 3048 c4 -13 30 -94 58 -180 l52 -158 37 0 36 0 51 163 c28 89
56 170 61 180 9 15 6 17 -25 17 l-34 0 -30 -97 c-16 -54 -33 -113 -36 -130 -6
-31 -21 -50 -31 -40 -2 2 -21 63 -41 136 l-36 131 -34 0 c-31 0 -34 -2 -28
-22z"/>
<path d="M6210 2890 l0 -180 115 0 115 0 0 30 0 30 -85 0 -85 0 0 50 0 50 70
0 c68 0 70 1 70 25 0 24 -2 25 -71 25 l-70 0 3 48 3 47 80 5 c56 3 80 9 79 18
-1 6 -2 17 -3 22 0 6 -45 10 -111 10 l-110 0 0 -180z"/>
<path d="M6545 2890 l0 -180 108 0 107 0 0 30 0 30 -75 0 -75 0 0 150 0 150
-32 0 -33 0 0 -180z"/>
<path d="M7230 2890 l0 -180 30 0 30 0 0 65 0 65 50 0 c28 0 64 7 80 15 68 35
79 135 20 188 -28 25 -36 27 -120 27 l-90 0 0 -180z m158 114 c25 -17 31 -71
10 -92 -7 -7 -34 -12 -60 -12 l-48 0 0 60 0 60 38 0 c21 0 48 -7 60 -16z"/>
<path d="M7580 2890 l0 -180 110 0 110 0 0 30 0 30 -80 0 -80 0 0 50 0 50 65
0 c63 0 65 1 65 25 0 24 -2 25 -66 25 l-65 0 3 48 3 47 78 3 c74 3 77 4 77 27
l0 25 -110 0 -110 0 0 -180z"/>
<path d="M7900 2890 l0 -180 36 0 c30 0 35 3 30 17 -4 9 -4 41 0 70 6 47 9 53
30 53 18 0 32 -15 64 -70 40 -68 42 -70 80 -70 l40 0 -45 72 -45 72 29 23 c55
43 54 139 -2 173 -26 16 -50 20 -124 20 l-93 0 0 -180z m165 118 c34 -15 37
-57 7 -91 -12 -13 -28 -17 -61 -15 l-46 3 -3 44 c-2 24 -1 50 2 57 7 17 65 18
101 2z"/>
</g>
</svg>
